<svg width="24" height="24" viewBox="0 0 24 24" fill="none" xmlns="http://www.w3.org/2000/svg">
  <path d="M11.8269 0C5.29687 0 0 5.29687 0 11.8269C0 18.357 5.29687 23.6538 11.8269 23.6538C18.357 23.6538 23.6538 18.357 23.6538 11.8269C23.6538 5.29687 18.357 0 11.8269 0ZM11.8269 1.84615C17.3293 1.84615 21.8077 6.32451 21.8077 11.8269C21.8077 12.2596 21.7752 12.6779 21.7211 13.0961C21.5373 13.0493 20.9603 12.9014 20.3365 12.8942C19.7776 12.887 19.107 12.9808 18.75 13.0385C18.8437 12.6562 18.9231 12.2488 18.9231 11.8269C18.9231 10.774 18.5264 9.75 17.8269 8.88461C18.0865 8.06971 18.4471 6.21635 17.7404 5.50961C16.0096 5.50961 15.036 6.60938 14.8558 6.83654C14.0625 6.54807 13.2043 6.40384 12.2885 6.40384C11.3942 6.40384 10.5288 6.53366 9.75 6.80769C9.50841 6.51562 8.55289 5.50961 6.89423 5.50961C6.20192 6.20192 6.54807 7.98677 6.80769 8.82692C6.07572 9.70673 5.65384 10.7488 5.65384 11.8269C5.65384 12.2236 5.6863 12.6202 5.76923 12.9808C5.46635 12.9555 4.23677 12.8654 3.75 12.8654C3.26322 12.8654 2.46274 12.9699 1.93269 13.0961C1.87861 12.6779 1.84615 12.2596 1.84615 11.8269C1.84615 6.32451 6.32451 1.84615 11.8269 1.84615ZM3.75 13.0961C4.22956 13.0961 5.70793 13.2296 5.85577 13.2404C5.881 13.3269 5.90985 13.4135 5.94231 13.5C5.45553 13.4603 4.41346 13.3918 3.75 13.4711C2.9387 13.5685 2.34015 13.8894 2.10577 14.0192C2.05529 13.7921 1.99759 13.5577 1.96154 13.3269C2.46995 13.2079 3.29928 13.0961 3.75 13.0961ZM20.3365 13.125C20.9423 13.1322 21.5373 13.262 21.6923 13.2981C21.6779 13.4026 21.6526 13.5108 21.6346 13.6154C21.5553 13.5937 20.8341 13.3738 20.0769 13.3558C19.7055 13.3449 19.1178 13.4062 18.6635 13.4423C18.6851 13.3846 18.7031 13.3269 18.7211 13.2692C19.0348 13.226 19.7812 13.1178 20.3365 13.125ZM20.0481 13.5865C20.7836 13.6046 21.5625 13.8353 21.6058 13.8461C20.9243 17.1598 18.5986 19.857 15.5192 21.0865V19.5C15.5192 18.5012 14.9243 17.2031 14.0769 16.5577C16.4639 16.2151 17.9495 15.1587 18.5769 13.6731C19.006 13.637 19.6623 13.5757 20.0481 13.5865ZM4.5 13.6731C5.15985 13.6767 5.7512 13.7091 6.02884 13.7308C6.67067 15.1839 8.14543 16.2187 10.5 16.5577C10.2332 16.7632 9.98437 17.03 9.77884 17.3365C9.77163 17.3474 9.75721 17.3546 9.75 17.3654C9.28846 17.9207 8.42307 17.8846 7.61538 17.8846C6.78966 17.8846 6.29567 17.2248 5.85577 16.6442C5.41226 16.0673 4.83533 16.0168 4.52884 15.9808C4.22236 15.9483 4.13943 16.1034 4.29808 16.2115C5.19591 16.8425 5.54928 17.6142 5.91346 18.2885C6.24159 18.8942 6.91586 19.2115 7.67307 19.2115H9.08654C9.07572 19.3053 9.05769 19.4098 9.05769 19.5V21.4038C5.65745 20.4231 3.02524 17.6971 2.16346 14.25C2.34375 14.149 2.97836 13.7957 3.77884 13.7019C3.96995 13.6803 4.22596 13.6731 4.5 13.6731ZM12.2885 19.2115C12.5445 19.2115 12.75 19.4171 12.75 19.6731V21.75C12.4435 21.7788 12.1406 21.8077 11.8269 21.8077V19.6731C11.8269 19.4171 12.0325 19.2115 12.2885 19.2115ZM10.4423 19.7596C10.6983 19.7596 10.9038 19.9651 10.9038 20.2211V21.75C10.5974 21.7211 10.28 21.6887 9.98077 21.6346V20.2211C9.98077 19.9651 10.1863 19.7596 10.4423 19.7596ZM14.1346 19.7596C14.3906 19.7596 14.5961 19.9651 14.5961 20.2211V21.4038C14.2933 21.4904 13.9868 21.5769 13.6731 21.6346V20.2211C13.6731 19.9651 13.8786 19.7596 14.1346 19.7596Z" fill="#E36840"/>
  </svg>
  