<svg width="22" height="22" viewBox="0 0 22 22" fill="none" xmlns="http://www.w3.org/2000/svg">
  <path d="M2.61905 0C1.17882 0 0 1.17882 0 2.61905V19.381C0 20.8212 1.17882 22 2.61905 22H19.381C20.8212 22 22 20.8212 22 19.381V2.61905C22 1.17882 20.8212 0 19.381 0H2.61905ZM2.61905 1.04762H19.381C20.2549 1.04762 20.9524 1.74508 20.9524 2.61905V19.381C20.9524 20.2549 20.2549 20.9524 19.381 20.9524H2.61905C1.74508 20.9524 1.04762 20.2549 1.04762 19.381V2.61905C1.04762 1.74508 1.74508 1.04762 2.61905 1.04762ZM5.23809 3.67281C4.66441 3.67281 4.14816 3.84428 3.7659 4.16593C3.38364 4.48757 3.149 4.96808 3.149 5.48261C3.149 6.46066 3.99734 7.22313 5.07645 7.29855L5.0785 7.29957C5.12992 7.3171 5.18378 7.32642 5.2381 7.32719C6.42872 7.32719 7.3272 6.49318 7.3272 5.48261C7.32711 5.4734 7.32676 5.46418 7.32618 5.45498C7.27288 4.45962 6.38547 3.67281 5.23809 3.67281ZM5.23809 4.70815C5.96736 4.70815 6.25532 5.03383 6.28674 5.49591C6.28037 5.94442 6.0029 6.29185 5.23809 6.29185C4.5124 6.29185 4.18434 5.92022 4.18434 5.48261C4.18434 5.26381 4.26418 5.09892 4.43192 4.95778C4.59966 4.81664 4.86892 4.70815 5.23809 4.70815ZM3.66667 7.85714C3.37739 7.85717 3.14289 8.09167 3.14286 8.38095V18.3333C3.14289 18.6226 3.37739 18.8571 3.66667 18.8571H6.80952C7.0988 18.8571 7.3333 18.6226 7.33333 18.3333V8.38095C7.3333 8.09167 7.0988 7.85717 6.80952 7.85714H3.66667ZM8.38095 7.85714C8.09167 7.85717 7.85717 8.09167 7.85714 8.38095V18.3333C7.85717 18.6226 8.09167 18.8571 8.38095 18.8571H11.5238C11.8131 18.8571 12.0476 18.6226 12.0476 18.3333V13.0952C12.0476 12.6606 12.1662 12.2283 12.375 11.9453C12.5838 11.6623 12.8472 11.4924 13.3479 11.5013C13.8643 11.5102 14.1376 11.6871 14.3444 11.9648C14.5512 12.2424 14.6667 12.6587 14.6667 13.0952V18.3333C14.6667 18.6226 14.9012 18.8571 15.1905 18.8571H18.3333C18.6226 18.8571 18.8571 18.6226 18.8571 18.3333V12.7085C18.8571 11.1572 18.3976 9.92846 17.61 9.0971C16.8224 8.26574 15.7269 7.85714 14.5684 7.85714C13.4674 7.85714 12.6295 8.22637 12.0476 8.60296V8.38095C12.0476 8.09167 11.8131 7.85717 11.5238 7.85714H8.38095ZM4.19048 8.90476H6.28571V17.8095H4.19048V8.90476ZM8.90476 8.90476H11V9.72219C11.0001 9.94743 11.1441 10.1474 11.3577 10.2189C11.5713 10.2903 11.8067 10.2172 11.9422 10.0373C11.9422 10.0373 12.7648 8.90476 14.5684 8.90476C15.4869 8.90476 16.2744 9.20992 16.8499 9.81734C17.4253 10.4248 17.8095 11.3605 17.8095 12.7085V17.8095H15.7143V13.0952C15.7143 12.4841 15.5679 11.8523 15.1854 11.3386C14.8029 10.825 14.1595 10.4673 13.3663 10.4537C12.5691 10.4395 11.9154 10.8046 11.532 11.3243C11.1486 11.844 11 12.4822 11 13.0952V17.8095H8.90476L8.90476 8.90476Z" fill="#E36840"/>
  </svg>
  